<?xml version="1.0" encoding="UTF-8"?>
<svg version="1.1" xmlns="http://www.w3.org/2000/svg" width="360" height="90">
<path d="M0 0 C3.96 0 7.92 0 12 0 C12 2.31 12 4.62 12 7 C14.31 7 16.62 7 19 7 C18.60348083 8.31872662 18.18201309 9.62997101 17.75 10.9375 C17.40195312 12.03384766 17.40195312 12.03384766 17.046875 13.15234375 C16 15 16 15 13.890625 15.75390625 C12.95476562 15.87572266 12.95476562 15.87572266 12 16 C12.103125 17.27875 12.20625 18.5575 12.3125 19.875 C12.35907073 25.73359812 9.89818838 30.04202774 7 35 C4.43091392 34.6456433 3.18404754 34.17039908 1.26171875 32.390625 C-0.48578532 29.07956466 -0.29079103 26.4684772 -0.1875 22.75 C-0.14689453 20.85507812 -0.14689453 20.85507812 -0.10546875 18.921875 C-0.07066406 17.95765625 -0.03585938 16.9934375 0 16 C-0.66 16 -1.32 16 -2 16 C-1.99476318 16.57032959 -1.98952637 17.14065918 -1.98413086 17.72827148 C-1.96341779 20.29800323 -1.9503581 22.86771747 -1.9375 25.4375 C-1.92912109 26.33533203 -1.92074219 27.23316406 -1.91210938 28.15820312 C-1.90888672 29.01220703 -1.90566406 29.86621094 -1.90234375 30.74609375 C-1.89710693 31.53685303 -1.89187012 32.3276123 -1.88647461 33.14233398 C-2 35 -2 35 -3 36 C-4.79030438 36.07289513 -6.58333718 36.08366137 -8.375 36.0625 C-9.35210937 36.05347656 -10.32921875 36.04445312 -11.3359375 36.03515625 C-12.21507812 36.02355469 -13.09421875 36.01195312 -14 36 C-16.88667823 35.96197485 -16.88667823 35.96197485 -19.3046875 36.17578125 C-26.34 36.55 -26.34 36.55 -30 33.5 C-30.66 32.675 -31.32 31.85 -32 31 C-32.66 31 -33.32 31 -34 31 C-34.639375 31.639375 -35.27875 32.27875 -35.9375 32.9375 C-39.35728119 36.35728119 -42.67181093 36.21080093 -47.3125 36.3125 C-52.92723721 36.29370066 -55.86648141 35.779217 -60 32 C-60.12955078 32.90492187 -60.12955078 32.90492187 -60.26171875 33.828125 C-61.42074364 40.42074364 -61.42074364 40.42074364 -64.5 43.5 C-68.7063321 46.02379926 -71.28806566 46.1916243 -76.25 46.25 C-77.55453125 46.27578125 -78.8590625 46.3015625 -80.203125 46.328125 C-84.21731334 45.98121983 -86.59509491 45.10633768 -90 43 C-91.80935423 40.36821203 -92 39.2388234 -92 36 C-92.75925781 36 -93.51851562 36 -94.30078125 36 C-98.20052083 36 -102.10026042 36 -106 36 C-106.67675781 36.04640625 -107.35351562 36.0928125 -108.05078125 36.140625 C-113.55474209 36.40679236 -116.73639028 35.8476478 -121 32 C-121.72114735 30.35617254 -122.39714591 28.69079542 -123 27 C-126.26320477 34.91190431 -129.16204613 42.92811482 -132 51 C-135.96 51 -139.92 51 -144 51 C-143.18619792 48.10286458 -142.37239583 45.20572917 -141.55859375 42.30859375 C-140.20128688 34.26916074 -143.57796514 27.4865845 -146.5625 20.1875 C-147.40005403 18.11966934 -148.23483782 16.05071374 -149.06640625 13.98046875 C-149.43709229 13.07192139 -149.80777832 12.16337402 -150.18969727 11.22729492 C-151 9 -151 9 -151 7 C-146.38 7 -141.76 7 -137 7 C-136.01 9.97 -135.02 12.94 -134 16 C-132.00902154 13.01353231 -131.05875074 10.40312738 -130 7 C-129.09378906 7.01160156 -128.18757813 7.02320313 -127.25390625 7.03515625 C-119.04524234 7.11345765 -119.04524234 7.11345765 -110.875 6.4375 C-107 6 -107 6 -105.1484375 6.46875 C-102.31132187 7.17029132 -99.66802496 7.09421766 -96.75 7.0625 C-95.67234375 7.05347656 -94.5946875 7.04445313 -93.484375 7.03515625 C-92.25460938 7.01775391 -92.25460938 7.01775391 -91 7 C-90.505 8.485 -90.505 8.485 -90 10 C-89.525625 9.525625 -89.05125 9.05125 -88.5625 8.5625 C-84.90848996 6.3344451 -81.24257678 6.0298773 -77 6 C-76.37609375 6.15855469 -75.7521875 6.31710938 -75.109375 6.48046875 C-72.28922154 7.1750621 -69.64960468 7.09401744 -66.75 7.0625 C-65.67234375 7.05347656 -64.5946875 7.04445313 -63.484375 7.03515625 C-62.25460938 7.01775391 -62.25460938 7.01775391 -61 7 C-60.505 8.485 -60.505 8.485 -60 10 C-58.88625 9.34 -57.7725 8.68 -56.625 8 C-51.74379632 5.56805277 -47.36893874 5.23685653 -42 6 C-38.598315 7.33637625 -36.56521154 8.43478846 -34 11 C-33.67 9.68 -33.34 8.36 -33 7 C-29.04 7 -25.08 7 -21 7 C-19.8517315 9.296537 -19.88438825 10.58313167 -19.90234375 13.1328125 C-19.90556641 13.93847656 -19.90878906 14.74414062 -19.91210938 15.57421875 C-19.92048828 16.41597656 -19.92886719 17.25773437 -19.9375 18.125 C-19.94201172 18.97449219 -19.94652344 19.82398437 -19.95117188 20.69921875 C-19.96297126 22.79950909 -19.98090694 24.8997633 -20 27 C-19.01 26.67 -18.02 26.34 -17 26 C-15.3501993 22.70039859 -15.61741639 19.00872116 -15.4375 15.375 C-15.37272461 14.17230469 -15.37272461 14.17230469 -15.30664062 12.9453125 C-15.20048543 10.9637489 -15.09973145 8.98189729 -15 7 C-10.05 7 -5.1 7 0 7 C0 4.69 0 2.38 0 0 Z M-48 14 C-49.82518575 16.33623775 -51.01010373 18.08898065 -50.9765625 21.11328125 C-50.71735287 23.08537617 -50.36455921 25.04463697 -50 27 C-48.02 27.495 -48.02 27.495 -46 28 C-43.54589642 24.31884463 -43.76712157 22.34706402 -44 18 C-44.33 17.01 -44.66 16.02 -45 15 C-45.99 14.67 -46.98 14.34 -48 14 Z M-109 15 C-110.88838279 17.77703351 -110.99354164 19.18729234 -110.875 22.625 C-110.35699888 26.03957975 -110.35699888 26.03957975 -108.0625 27.5 C-105.95417784 28.24598544 -105.95417784 28.24598544 -104 27 C-103.45537858 24.98072747 -103.45537858 24.98072747 -103.25 22.625 C-103.15203125 21.83351563 -103.0540625 21.04203125 -102.953125 20.2265625 C-102.80675687 17.70804499 -102.80675687 17.70804499 -105 15 C-106.32 15 -107.64 15 -109 15 Z M-79 15 C-80.80411967 17.75924185 -81.0127245 18.88972103 -80.625 22.25 C-80.41875 23.1575 -80.2125 24.065 -80 25 C-77.60280568 25.67958603 -77.60280568 25.67958603 -75 26 C-72.61214724 24.05765911 -72.61214724 24.05765911 -72.8125 20.5 C-72.75868763 17.15035297 -72.75868763 17.15035297 -74 15 C-75.65 15 -77.3 15 -79 15 Z M-91 30 C-91 31.65 -91 33.3 -91 35 C-88.03 35 -85.06 35 -82 35 C-83.32 34.34 -84.64 33.68 -86 33 C-87.67334039 32.01120795 -89.34151823 31.01351664 -91 30 Z M-80 35 C-79.01 36.485 -79.01 36.485 -78 38 C-76.68 37.67 -75.36 37.34 -74 37 C-73.67 35.68 -73.34 34.36 -73 33 C-75.35287614 33 -77.79373224 34.24893012 -80 35 Z " fill="#060452" transform="translate(256,17)"/>
<path d="M0 0 C8.25 0 16.5 0 25 0 C28.66666667 7.33333333 32.33333333 14.66666667 36 22 C36.2673999 21.36908447 36.5347998 20.73816895 36.81030273 20.08813477 C38.01687 17.2451885 39.22713352 14.40383072 40.4375 11.5625 C40.85837891 10.56927734 41.27925781 9.57605469 41.71289062 8.55273438 C42.11572266 7.60849609 42.51855469 6.66425781 42.93359375 5.69140625 C43.30540771 4.81685791 43.67722168 3.94230957 44.06030273 3.04125977 C45 1 45 1 46 0 C47.70772358 -0.08713831 49.41898649 -0.10700007 51.12890625 -0.09765625 C52.68061523 -0.09282227 52.68061523 -0.09282227 54.26367188 -0.08789062 C55.35228516 -0.07951172 56.44089844 -0.07113281 57.5625 -0.0625 C59.2012207 -0.05573242 59.2012207 -0.05573242 60.87304688 -0.04882812 C63.58208495 -0.03699826 66.29101599 -0.02051543 69 0 C68.47658241 3.84574185 67.76825453 6.94971732 65.9375 10.375 C65.39416016 11.40753906 65.39416016 11.40753906 64.83984375 12.4609375 C64.42412109 13.22277344 64.42412109 13.22277344 64 14 C64.556875 14.07476562 65.11375 14.14953125 65.6875 14.2265625 C73.174608 15.51657097 78.30960688 18.55293382 83 24.5625 C84.97117749 31.33842261 85.5517335 39.10829141 82.125 45.5 C78.7337718 49.98364065 74.34486223 52.43833244 69 54 C64.89392285 54.3724004 61.13748582 54.2405515 57 54 C54.36 59.94 51.72 65.88 49 72 C45.37 72 41.74 72 38 72 C37.525625 73.44375 37.05125 74.8875 36.5625 76.375 C35.80602983 78.67730051 35.08391186 80.83217629 34 83 C26.08 83 18.16 83 10 83 C13.32291667 73.03125 13.32291667 73.03125 15.578125 69.265625 C21.25058928 59.1572012 21.25058928 59.1572012 21.0390625 47.984375 C19.27767849 43.49194058 16.9864142 39.29526435 14.64404297 35.08300781 C11.74279879 29.64242101 9.30875742 23.98852401 6.81719971 18.3515625 C5.94751714 16.39750712 5.06118923 14.45188077 4.16943359 12.5078125 C3.62754395 11.31671875 3.0856543 10.125625 2.52734375 8.8984375 C1.79632446 7.30008057 1.79632446 7.30008057 1.05053711 5.66943359 C0 3 0 3 0 0 Z M63 28 C60.333492 30.16588845 60.333492 30.16588845 58 33 C57.82221688 35.69628579 57.82221688 35.69628579 59 38 C62.23253796 40.15502531 63.25150923 40.46856135 67 40 C69.01951062 39.06402685 69.01951062 39.06402685 70 37 C69.76522801 33.35458155 69.76522801 33.35458155 69 30 C67.02 29.34 65.04 28.68 63 28 Z " fill="#060452" transform="translate(4,3)"/>
<path d="M0 0 C2.57117748 1.41388578 3.96153651 2.80473162 6 5 C6 5.66 6 6.32 6 7 C6.66 7 7.32 7 8 7 C8.3403125 6.1028125 8.3403125 6.1028125 8.6875 5.1875 C10.44176201 2.26372999 11.86849164 1.36152537 15 0 C17.72251918 -0.24991875 20.25173802 -0.13298042 23 0 C23.99 0 24.98 0 26 0 C33.66666667 0 41.33333333 0 49 0 C49.47985967 1.27057182 49.9588593 2.54146848 50.4375 3.8125 C50.70433594 4.52019531 50.97117187 5.22789063 51.24609375 5.95703125 C51.86225186 7.62672396 52.43719235 9.31157704 53 11 C53.20496094 10.28972656 53.40992188 9.57945313 53.62109375 8.84765625 C53.89050781 7.92855469 54.15992188 7.00945313 54.4375 6.0625 C54.70433594 5.14597656 54.97117187 4.22945312 55.24609375 3.28515625 C56 1 56 1 57 0 C59.01964199 -0.07244053 61.04167124 -0.08377188 63.0625 -0.0625 C64.16722656 -0.05347656 65.27195312 -0.04445313 66.41015625 -0.03515625 C67.26480469 -0.02355469 68.11945313 -0.01195313 69 0 C67.78153706 6.00928514 66.20772807 11.7514865 64.1796875 17.53515625 C63.91616486 18.29928329 63.65264221 19.06341034 63.38113403 19.85069275 C62.55036362 22.25625285 61.71281809 24.65938662 60.875 27.0625 C60.30553688 28.70752565 59.73652246 30.3527067 59.16796875 31.99804688 C57.78381833 36.00051032 56.39359276 40.00081494 55 44 C51.04 44 47.08 44 43 44 C43.48828125 41.8515625 43.9765625 39.703125 44.46484375 37.5546875 C44.64144531 36.71164063 44.81804687 35.86859375 45 35 C45.38671875 33.63875 45.38671875 33.63875 45.78125 32.25 C46.0934469 27.61164606 44.44181236 24.30124968 42.5625 20.125 C42.05493164 18.949375 42.05493164 18.949375 41.53710938 17.75 C40.70479879 15.82747978 39.85419934 13.91289528 39 12 C38.67 17.61 38.34 23.22 38 29 C34.41927083 28.96744792 30.83854167 28.93489583 27.2578125 28.90234375 C24.11335348 28.76823431 24.11335348 28.76823431 22 30 C17.40969539 30.0450914 13.88607678 29.57225792 10 27.0625 C8 25 8 25 7 23 C6.5875 23.42152344 6.175 23.84304687 5.75 24.27734375 C1.20139142 28.59243001 -1.71322193 29.89522037 -8 30 C-8.99 29.67 -9.98 29.34 -11 29 C-11.33 33.95 -11.66 38.9 -12 44 C-15.96 44 -19.92 44 -24 44 C-24.77470391 33.23919867 -23.08149638 25.70440332 -18.75 15.8125 C-18.25886719 14.61302734 -17.76773437 13.41355469 -17.26171875 12.17773438 C-13.49756977 3.25921071 -10.43413257 -1.98230498 0 0 Z M-10 8 C-12.23194769 9.80885466 -12.23194769 9.80885466 -12.23046875 12.34765625 C-12.21628906 13.24355469 -12.20210938 14.13945313 -12.1875 15.0625 C-12.18105469 15.96097656 -12.17460937 16.85945313 -12.16796875 17.78515625 C-12.24394743 19.97325599 -12.24394743 19.97325599 -11 21 C-9.33382885 21.04063832 -7.66611905 21.042721 -6 21 C-4.4364652 17.87293041 -4.60041513 14.42017557 -5 11 C-5.66 10.01 -6.32 9.02 -7 8 C-7.99 8 -8.98 8 -10 8 Z M21 8 C19.08228372 10.05338662 19.08228372 10.05338662 18 13 C18.22247835 16.73093378 18.22247835 16.73093378 19 20 C20.65 20.33 22.3 20.66 24 21 C26.45811625 17.31282562 26.31118164 15.35654296 26 11 C25.34 10.01 24.68 9.02 24 8 C23.01 8 22.02 8 21 8 Z " fill="#850704" transform="translate(289,23)"/>
<path d="M0 0 C4.61802573 2.67259976 7.53201573 6.41192192 9.5625 11.3125 C10.42687023 18.19106729 10.6145184 24.94260452 6.29296875 30.65625 C0.91278978 35.80567637 -4.69658442 37.59891057 -12.0625 37.625 C-13.83625 37.521875 -15.61 37.41875 -17.4375 37.3125 C-21.3975 46.2225 -21.3975 46.2225 -25.4375 55.3125 C-33.0275 55.3125 -40.6175 55.3125 -48.4375 55.3125 C-44.75828886 45.5132003 -40.80322892 35.869408 -36.60888672 26.28051758 C-35.90727336 24.66759261 -35.21333466 23.05130892 -34.52685547 21.43188477 C-33.517318 19.05198746 -32.48407245 16.68366997 -31.4453125 14.31640625 C-31.1471463 13.60069962 -30.8489801 12.88499298 -30.54177856 12.14759827 C-27.80865531 6.04228149 -23.77350656 2.04302214 -17.83203125 -1.0390625 C-11.88938528 -2.64832715 -5.63018167 -2.60422261 0 0 Z M-11.4375 11.3125 C-14.104008 13.47838845 -14.104008 13.47838845 -16.4375 16.3125 C-16.61528312 19.00878579 -16.61528312 19.00878579 -15.4375 21.3125 C-12.20496204 23.46752531 -11.18599077 23.78106135 -7.4375 23.3125 C-5.41798938 22.37652685 -5.41798938 22.37652685 -4.4375 20.3125 C-4.67227199 16.66708155 -4.67227199 16.66708155 -5.4375 13.3125 C-7.4175 12.6525 -9.3975 11.9925 -11.4375 11.3125 Z " fill="#850704" transform="translate(78.4375,19.6875)"/>
<path d="M0 0 C2.375 1.5 2.375 1.5 4 3 C4.33 2.34 4.66 1.68 5 1 C6.65 1 8.3 1 10 1 C10.495 5.95 10.495 5.95 11 11 C11.33 11 11.66 11 12 11 C12.33 7.7 12.66 4.4 13 1 C15.79192205 0.94619422 18.5828141 0.90642331 21.375 0.875 C22.1690625 0.85824219 22.963125 0.84148438 23.78125 0.82421875 C25.85492015 0.80664527 27.92883241 0.89664832 30 1 C32 3 32 3 32.1875 6 C32 9 32 9 31 11 C31.89363605 13.60931266 31.89363605 13.60931266 33 16 C30.125 16.125 30.125 16.125 27 16 C26.34 15.34 25.68 14.68 25 14 C24.67 14.66 24.34 15.32 24 16 C21 16 18 16 15 16 C13.865625 16.061875 12.73125 16.12375 11.5625 16.1875 C7.83455017 15.99129211 6.63235205 15.52705797 4 13 C3.484375 13.495 2.96875 13.99 2.4375 14.5 C-0.9238388 16.56851618 -3.11959911 16.48505011 -7 16 C-9.90717073 13.78136971 -10.83981643 12.48055071 -12 9 C-12.66 11.31 -13.32 13.62 -14 16 C-15.65 16 -17.3 16 -19 16 C-20.66666667 11 -22.33333333 6 -24 1 C-21.125 0.875 -21.125 0.875 -18 1 C-17.34 1.66 -16.68 2.32 -16 3 C-15.67 2.34 -15.34 1.68 -15 1 C-13.88625 1.020625 -12.7725 1.04125 -11.625 1.0625 C-7.43335727 0.9902303 -4.31962304 -0.34556984 0 0 Z M-5 5 C-5.33 6.65 -5.66 8.3 -6 10 C-4.02 10.99 -4.02 10.99 -2 12 C-0.70366379 10.93354885 -0.70366379 10.93354885 -0.9375 8.4375 C-0.958125 7.633125 -0.97875 6.82875 -1 6 C-2.32 5.67 -3.64 5.34 -5 5 Z M24 5 C24 5.66 24 6.32 24 7 C24.99 6.67 25.98 6.34 27 6 C26.01 5.67 25.02 5.34 24 5 Z " fill="#000000" transform="translate(222,57)"/>
<path d="M0 0 C1.98 0 3.96 0 6 0 C6.33 0.66 6.66 1.32 7 2 C7.33 1.34 7.66 0.68 8 0 C12.33333333 0 16.66666667 0 21 0 C21 1.32 21 2.64 21 4 C21.66 2.68 22.32 1.36 23 0 C25.12438339 -0.08078641 27.2496323 -0.13909141 29.375 -0.1875 C30.55835938 -0.22230469 31.74171875 -0.25710937 32.9609375 -0.29296875 C34.46527344 -0.14794922 34.46527344 -0.14794922 36 0 C36.66 0.99 37.32 1.98 38 3 C38.66 2.01 39.32 1.02 40 0 C43.125 -0.1875 43.125 -0.1875 46 0 C44.33333333 5 42.66666667 10 41 15 C39.02 15 37.04 15 35 15 C34.505 13.515 34.505 13.515 34 12 C34 12.99 34 13.98 34 15 C32.02 15 30.04 15 28 15 C28 14.34 28 13.68 28 13 C26.68 13 25.36 13 24 13 C24 13.66 24 14.32 24 15 C17 15 10 15 3 15 C2.01 10.05 1.02 5.1 0 0 Z M31 4 C32 6 32 6 32 6 Z M19 7 C20 10 20 10 20 10 Z M18 11 C19 13 19 13 19 13 Z " fill="#000000" transform="translate(283,57)"/>
</svg>
